<?xml version="1.0" encoding="UTF-8" standalone="no"?>
<!-- Created with Inkscape (http://www.inkscape.org/) -->

<svg
   xmlns:dc="http://purl.org/dc/elements/1.1/"
   xmlns:cc="http://creativecommons.org/ns#"
   xmlns:rdf="http://www.w3.org/1999/02/22-rdf-syntax-ns#"
   xmlns:svg="http://www.w3.org/2000/svg"
   xmlns="http://www.w3.org/2000/svg"
   xmlns:sodipodi="http://sodipodi.sourceforge.net/DTD/sodipodi-0.dtd"
   xmlns:inkscape="http://www.inkscape.org/namespaces/inkscape"
   width="406.00793"
   height="330.43011"
   id="svg2"
   sodipodi:version="0.32"
   inkscape:version="0.48.4 r9939"
   sodipodi:docname="system_participant_view.pdf"
   version="1.0">
  <defs
     id="defs4">
    <path
       transform="translate(213.09842,748.13781)"
       d="m 212.59843,109.84251 a 88.58268,88.58268 0 1 1 -177.165363,0 88.58268,88.58268 0 1 1 177.165363,0 z"
       sodipodi:ry="88.58268"
       sodipodi:rx="88.58268"
       sodipodi:cy="109.84251"
       sodipodi:cx="124.01575"
       id="path2999-4"
       style="fill:#32ff32;fill-opacity:0.58823529;fill-rule:nonzero;stroke:#000000;stroke-width:0.70866144;stroke-linecap:round;stroke-linejoin:round;stroke-miterlimit:4;stroke-opacity:1;stroke-dasharray:none;stroke-dashoffset:0"
       sodipodi:type="arc" />
  </defs>
  <sodipodi:namedview
     id="base"
     pagecolor="#ffffff"
     bordercolor="#666666"
     borderopacity="1.0"
     inkscape:pageopacity="0.0"
     inkscape:pageshadow="2"
     inkscape:zoom="1.4142136"
     inkscape:cx="226.03111"
     inkscape:cy="154.17029"
     inkscape:document-units="mm"
     inkscape:current-layer="layer1"
     inkscape:window-width="1366"
     inkscape:window-height="744"
     inkscape:window-x="0"
     inkscape:window-y="24"
     width="12.8cm"
     height="9.6cm"
     units="cm"
     showgrid="true"
     grid_units="mm"
     inkscape:object-paths="false"
     inkscape:grid-points="true"
     inkscape:grid-bbox="true"
     inkscape:guide-points="true"
     showguides="true"
     inkscape:guide-bbox="true"
     inkscape:snap-bbox="true"
     inkscape:snap-nodes="true"
     inkscape:snap-global="false"
     inkscape:window-maximized="1"
     fit-margin-top="0.1"
     fit-margin-left="0.1"
     fit-margin-right="0.1"
     fit-margin-bottom="0.1">
    <inkscape:grid
       id="GridFromPre046Settings"
       type="xygrid"
       originx="-8.899999mm"
       originy="-1.0411112mm"
       spacingx="2mm"
       spacingy="2mm"
       color="#3f3fff"
       empcolor="#3f3fff"
       opacity="0.15"
       empopacity="0.38"
       empspacing="5"
       units="mm"
       visible="true"
       enabled="true"
       snapvisiblegridlinesonly="true" />
  </sodipodi:namedview>
  <metadata
     id="metadata7">
    <rdf:RDF>
      <cc:Work
         rdf:about="">
        <dc:format>image/svg+xml</dc:format>
        <dc:type
           rdf:resource="http://purl.org/dc/dcmitype/StillImage" />
        <dc:title></dc:title>
      </cc:Work>
    </rdf:RDF>
  </metadata>
  <g
     inkscape:label="Layer 1"
     inkscape:groupmode="layer"
     id="layer1"
     transform="translate(-31.535425,-704.06989)">
    <path
       sodipodi:type="arc"
       style="fill:#ff3232;fill-opacity:0.58823529;fill-rule:nonzero;stroke:#000000;stroke-width:0.70866144;stroke-linecap:round;stroke-linejoin:round;stroke-miterlimit:4;stroke-opacity:1;stroke-dasharray:none;stroke-dashoffset:0"
       id="path2997"
       sodipodi:cx="124.01575"
       sodipodi:cy="109.84251"
       sodipodi:rx="88.58268"
       sodipodi:ry="88.58268"
       d="m 212.59843,109.84251 c 0,48.92286 -39.65982,88.58268 -88.58268,88.58268 -48.922866,0 -88.582683,-39.65982 -88.582683,-88.58268 0,-48.922867 39.659817,-88.582683 88.582683,-88.582683 48.92286,0 88.58268,39.659816 88.58268,88.582683 z"
       transform="translate(-4.149475e-6,698.0315)" />
    <path
       transform="translate(213.09842,748.13781)"
       d="m 212.59843,109.84251 c 0,48.92286 -39.65982,88.58268 -88.58268,88.58268 -48.922866,0 -88.582683,-39.65982 -88.582683,-88.58268 0,-48.922867 39.659817,-88.582683 88.582683,-88.582683 48.92286,0 88.58268,39.659816 88.58268,88.582683 z"
       sodipodi:ry="88.58268"
       sodipodi:rx="88.58268"
       sodipodi:cy="109.84251"
       sodipodi:cx="124.01575"
       id="path2999"
       style="fill:#32ff32;fill-opacity:0.58823529;fill-rule:nonzero;stroke:#000000;stroke-width:0.70866144;stroke-linecap:round;stroke-linejoin:round;stroke-miterlimit:4;stroke-opacity:1;stroke-dasharray:none;stroke-dashoffset:0"
       sodipodi:type="arc" />
    <path
       sodipodi:type="arc"
       style="fill:#3232ff;fill-opacity:0.39215686;fill-rule:nonzero;stroke:#000000;stroke-width:0.70866144;stroke-linecap:round;stroke-linejoin:round;stroke-miterlimit:4;stroke-opacity:1;stroke-dasharray:none;stroke-dashoffset:0"
       id="path3001"
       sodipodi:cx="124.01575"
       sodipodi:cy="109.84251"
       sodipodi:rx="88.58268"
       sodipodi:ry="88.58268"
       d="m 212.59843,109.84251 c 0,48.92286 -39.65982,88.58268 -88.58268,88.58268 -48.922866,0 -88.582683,-39.65982 -88.582683,-88.58268 0,-48.922867 39.659817,-88.582683 88.582683,-88.582683 48.92286,0 88.58268,39.659816 88.58268,88.582683 z"
       transform="translate(128.23228,832.17717)" />
    <path
       sodipodi:type="arc"
       style="fill:#cccccc;fill-opacity:1;fill-rule:nonzero;stroke:#000000;stroke-width:0.70866144;stroke-linecap:round;stroke-linejoin:round;stroke-miterlimit:4;stroke-opacity:1;stroke-dasharray:none;stroke-dashoffset:0"
       id="path3771"
       sodipodi:cx="124.43584"
       sodipodi:cy="112.29443"
       sodipodi:rx="12.389716"
       sodipodi:ry="12.389716"
       d="m 136.82555,112.29443 c 0,6.84265 -5.54706,12.38972 -12.38971,12.38972 -6.84265,0 -12.38972,-5.54707 -12.38972,-12.38972 0,-6.84265 5.54707,-12.389713 12.38972,-12.389713 6.84265,0 12.38971,5.547063 12.38971,12.389713 z"
       transform="matrix(1.3901813,0,0,1.3901812,-48.97263,651.7644)" />
    <text
       xml:space="preserve"
       style="font-size:11px;font-style:normal;font-weight:normal;text-align:center;line-height:125%;letter-spacing:0px;word-spacing:0px;text-anchor:middle;fill:#000000;fill-opacity:1;stroke:none;font-family:Sans"
       x="123.86267"
       y="811.88354"
       id="text3773"
       sodipodi:linespacing="125%"><tspan
         sodipodi:role="line"
         id="tspan3775"
         x="123.86267"
         y="811.88354">BB</tspan></text>
    <g
       transform="matrix(-0.6300677,-0.77654022,0.77654022,-0.6300677,-424.86608,1410.992)"
       inkscape:transform-center-x="-0.25141783"
       inkscape:transform-center-y="-83.404608"
       style="font-size:14px;font-style:normal;font-weight:normal;text-align:start;line-height:125%;letter-spacing:0px;word-spacing:0px;text-anchor:start;fill:#000000;fill-opacity:1;stroke:none;font-family:Sans"
       id="text3777">
      <path
         d="m 217.17849,814.32604 c -0.11513,0.29076 -0.34358,0.56666 -0.68535,0.8277 -0.34201,0.26557 -0.80691,0.52492 -1.39469,0.77806 l -2.85642,1.2584 0.0751,-1.4815 2.68089,-1.17147 c 0.69979,-0.30221 1.16926,-0.60696 1.40844,-0.91426 0.23893,-0.30275 0.37224,-0.72721 0.39992,-1.27338 l 0.0761,-1.50198 -4.30794,-0.21833 0.0699,-1.37909 10.19297,0.51659 -0.15778,3.1132 c -0.0591,1.16516 -0.34662,2.02215 -0.86268,2.57095 -0.51608,0.5488 -1.26567,0.79828 -2.24877,0.74847 -0.64177,-0.0325 -1.16667,-0.20972 -1.57473,-0.53156 -0.40829,-0.31731 -0.67995,-0.76457 -0.81496,-1.3418 m 4.45572,-3.2376 -3.6184,-0.18339 -0.0879,1.7341 c -0.0337,0.66451 0.0934,1.1729 0.3813,1.52516 0.29219,0.35704 0.73641,0.55067 1.33266,0.5809 0.59623,0.0302 1.0532,-0.11775 1.3709,-0.44388 0.32201,-0.32135 0.49986,-0.81429 0.53354,-1.47879 l 0.0879,-1.7341"
         style="font-size:14px"
         id="path4068" />
      <path
         d="m 218.29874,822.22758 c 0.10071,-0.66693 -0.081,-1.23362 -0.54521,-1.70009 -0.4597,-0.46579 -1.14241,-0.76708 -2.04815,-0.90386 -0.90575,-0.13679 -1.64891,-0.0531 -2.22947,0.25095 -0.57673,0.30927 -0.9158,0.79961 -1.0172,1.47104 -0.10004,0.66241 0.082,1.22685 0.54624,1.69333 0.46419,0.46646 1.14691,0.76775 2.04815,0.90386 0.89673,0.13542 1.63571,0.0488 2.21696,-0.25975 0.58575,-0.30792 0.92864,-0.79308 1.02868,-1.45548 m 1.05445,0.15924 c -0.16333,1.08148 -0.64309,1.87782 -1.43928,2.38901 -0.79621,0.51118 -1.81616,0.67286 -3.05987,0.48505 -1.2392,-0.18716 -2.16592,-0.64282 -2.78016,-1.367 -0.60974,-0.72352 -0.83294,-1.62602 -0.66962,-2.7075 0.16401,-1.086 0.64411,-1.88459 1.44031,-2.39577 0.80002,-0.506 1.81963,-0.66543 3.05884,-0.47829 1.2437,0.18782 2.17076,0.64124 2.78119,1.36024 0.60972,0.72351 0.83259,1.62826 0.66859,2.71426"
         style="font-size:14px"
         id="path4070" />
      <path
         d="m 216.4525,833.8378 -1.14148,-0.28194 c 0.27548,-0.29811 0.50284,-0.61046 0.68209,-0.93702 0.18256,-0.32107 0.31756,-0.65857 0.40499,-1.01251 0.19559,-0.79196 0.0953,-1.46923 -0.30088,-2.03181 -0.39178,-0.5615 -1.04115,-0.95425 -1.94814,-1.17826 -0.90699,-0.22402 -1.66676,-0.17931 -2.27932,0.13412 -0.60814,0.31453 -1.01,0.86777 -1.20561,1.65973 -0.0874,0.35394 -0.12729,0.71494 -0.11962,1.08299 0.011,0.37356 0.069,0.75638 0.17403,1.14848 l -1.12821,-0.27866 c -0.0751,-0.38002 -0.10716,-0.76347 -0.0961,-1.15035 0.01,-0.38247 0.0658,-0.77944 0.16739,-1.1909 0.27647,-1.11936 0.84785,-1.92178 1.71414,-2.40725 0.86629,-0.48548 1.89672,-0.58069 3.09129,-0.28565 1.21227,0.29942 2.08376,0.86673 2.61447,1.70195 0.52961,0.83964 0.65126,1.83904 0.36496,2.99822 -0.0929,0.37607 -0.22341,0.73345 -0.39155,1.07216 -0.16374,0.33979 -0.36455,0.65869 -0.60245,0.9567"
         style="font-size:14px"
         id="path4072" />
      <path
         d="m 218.74149,837.60714 -0.41242,1.19552 -5.93878,-2.04872 1.89738,4.62451 -0.52389,1.51862 -2.062,-5.00671 -5.23142,2.67146 0.53503,-1.55093 4.8033,-2.45758 -3.53483,-1.21942 0.41241,-1.19552 10.05522,3.46877"
         style="font-size:14px"
         id="path4074" />
      <path
         d="m 210.01701,855.93011 -1.1949,-0.62108 c 0.4641,-0.34944 0.85794,-0.702 1.18151,-1.0577 0.32355,-0.35571 0.58517,-0.72564 0.78485,-1.10978 0.34679,-0.66721 0.48537,-1.25004 0.41575,-1.74848 -0.0717,-0.49441 -0.34619,-0.86562 -0.82334,-1.11362 -0.40033,-0.20809 -0.7656,-0.24643 -1.09583,-0.11504 -0.3283,0.13752 -0.72957,0.50933 -1.20382,1.11543 l -0.53627,0.66118 c -0.64889,0.82348 -1.30616,1.33702 -1.97181,1.5406 -0.66371,0.20972 -1.36354,0.12331 -2.09949,-0.25921 -0.87748,-0.4561 -1.38923,-1.09703 -1.53526,-1.9228 -0.14813,-0.82174 0.0731,-1.80075 0.66371,-2.93701 0.2228,-0.42864 0.50882,-0.86035 0.85809,-1.29515 0.34716,-0.43075 0.75028,-0.85553 1.20937,-1.27434 l 1.26163,0.65577 c -0.53754,0.35234 -1.00108,0.73031 -1.39062,1.1339 -0.38954,0.40359 -0.70412,0.83588 -0.94372,1.29686 -0.36361,0.69955 -0.50672,1.31084 -0.42932,1.83388 0.0774,0.52302 0.37085,0.91695 0.88036,1.18178 0.4448,0.23119 0.86402,0.27446 1.25765,0.12981 0.39153,-0.14062 0.81181,-0.48971 1.26084,-1.04728 l 0.53336,-0.67039 c 0.65697,-0.81929 1.28569,-1.33226 1.88617,-1.53889 0.60047,-0.20664 1.24644,-0.13026 1.93791,0.22915 0.80065,0.41616 1.28538,1.02507 1.45422,1.82675 0.16672,0.80572 -0.007,1.70393 -0.52232,2.69464 -0.2207,0.42457 -0.48401,0.83728 -0.78993,1.23812 -0.30593,0.40081 -0.65553,0.79178 -1.04879,1.1729"
         style="font-size:14px"
         id="path4076" />
      <path
         d="m 203.93727,859.90751 c 0.36845,-0.56496 0.43832,-1.15597 0.20962,-1.77303 -0.22489,-0.61458 -0.72097,-1.17206 -1.48823,-1.67244 -0.76727,-0.50039 -1.47811,-0.73274 -2.13251,-0.69706 -0.65308,0.042 -1.16509,0.34737 -1.53602,0.91615 -0.36596,0.56113 -0.43458,1.15022 -0.20588,1.76729 0.22871,0.61706 0.72478,1.17454 1.48823,1.67245 0.75963,0.4954 1.46789,0.72335 2.12479,0.68386 0.66071,-0.037 1.17405,-0.3361 1.54,-0.89722 m 0.89324,0.58254 c -0.59748,0.91613 -1.3645,1.4415 -2.30104,1.57611 -0.93655,0.13459 -1.93161,-0.14166 -2.98517,-0.82875 -1.04974,-0.68462 -1.70373,-1.48383 -1.96198,-2.39763 -0.25443,-0.91133 -0.0829,-1.82506 0.51457,-2.7412 0.59997,-0.91995 1.36823,-1.44723 2.30478,-1.58183 0.93788,-0.1283 1.93168,0.14986 2.98143,0.83447 1.05355,0.6871 1.70879,1.4844 1.96572,2.39191 0.25442,0.91132 0.0817,1.82695 -0.51831,2.74692"
         style="font-size:14px"
         id="path4078" />
      <path
         d="m 197.54377,862.61416 3.61531,2.9001 -0.78704,0.98114 -3.57799,-2.87015 c -0.56523,-0.45341 -1.07844,-0.68398 -1.53963,-0.6917 -0.45763,-0.005 -0.86325,0.21309 -1.21685,0.6539 -0.42489,0.52967 -0.5911,1.08282 -0.49863,1.65945 0.0896,0.58017 0.42594,1.10409 1.00894,1.57176 l 3.38602,2.71617 -0.78704,0.98115 -5.97221,-4.79072 0.78705,-0.98115 0.91716,0.73572 c -0.17154,-0.52905 -0.21928,-1.02305 -0.14323,-1.48201 0.0768,-0.45257 0.28195,-0.8868 0.61558,-1.30272 0.55037,-0.6861 1.18142,-1.03579 1.89317,-1.04908 0.71175,-0.0133 1.47821,0.30942 2.29939,0.96814 m 1.77884,5.48445 0,0"
         style="font-size:14px"
         id="path4080" />
      <path
         d="m 188.28336,875.45422 -3.29874,-3.23617 0.88085,-0.89788 3.26946,3.20744 c 0.51726,0.50744 1.00333,0.78638 1.45821,0.83682 0.45487,0.0504 0.88018,-0.12607 1.27593,-0.52946 0.47552,-0.48473 0.696,-1.01858 0.66141,-1.60154 -0.0346,-0.58297 -0.31864,-1.13615 -0.85216,-1.65955 l -3.08892,-3.03032 0.88564,-0.90276 5.46538,5.36169 -0.88564,0.90277 -0.84909,-0.83298 c 0.11794,0.53704 0.11621,1.03012 -0.005,1.47924 -0.12457,0.45236 -0.37356,0.86885 -0.74696,1.24948 -0.61596,0.62786 -1.27711,0.91134 -1.98345,0.85044 -0.70309,-0.0577 -1.432,-0.4568 -2.18675,-1.19722"
         style="font-size:14px"
         id="path4082" />
      <path
         d="m 183.41477,882.14119 2.6536,3.18109 -0.96588,0.80572 -6.81354,-8.16796 0.96588,-0.80571 0.73565,0.88189 c -0.0889,-0.51928 -0.0492,-0.99456 0.1192,-1.42585 0.16784,-0.42487 0.46873,-0.8183 0.90267,-1.18029 0.71041,-0.59261 1.52605,-0.79228 2.44691,-0.59902 0.91736,0.19618 1.76138,0.75621 2.53206,1.6801 0.77068,0.92388 1.17026,1.85465 1.19874,2.79233 0.025,0.94058 -0.31774,1.70718 -1.02815,2.2998 -0.43394,0.36198 -0.87642,0.58568 -1.32742,0.67111 -0.45158,0.0918 -0.92483,0.0474 -1.41972,-0.13321 m 1.57918,-4.79804 c -0.59261,-0.71042 -1.20346,-1.14745 -1.83256,-1.31109 -0.62967,-0.15724 -1.19998,-0.0227 -1.71091,0.40347 -0.51093,0.4262 -0.74553,0.96314 -0.70378,1.61081 0.0447,0.65116 0.36332,1.33195 0.95592,2.04236 0.59261,0.71041 1.20375,1.14422 1.83343,1.30146 0.6326,0.16073 1.20436,0.028 1.7153,-0.39822 0.51093,-0.42622 0.74406,-0.9649 0.69939,-1.61606 -0.0453,-0.64475 -0.36418,-1.32233 -0.95679,-2.03273"
         style="font-size:14px"
         id="path4084" />
      <path
         d="m 178.26766,890.54221 -6.87345,4.12951 -0.54216,-0.90239 1.41614,-10.17334 -5.66635,3.4043 -0.59848,-0.99615 7.143,-4.29146 0.54215,0.90239 -1.41614,10.17334 5.39681,-3.24235 0.59848,0.99615"
         style="font-size:14px"
         id="path4086" />
      <path
         d="m 164.43276,894.26531 c 0.61073,-0.28623 0.98137,-0.75184 1.11192,-1.39684 0.13249,-0.64088 0.004,-1.37605 -0.38436,-2.20548 -0.38872,-0.82945 -0.87063,-1.40132 -1.44573,-1.71562 -0.57729,-0.30824 -1.17337,-0.31828 -1.78823,-0.0301 -0.60661,0.28429 -0.97519,0.74894 -1.10574,1.39395 -0.13054,0.645 -0.002,1.38016 0.38436,2.20548 0.38486,0.82118 0.8669,1.38796 1.44613,1.70033 0.58116,0.31648 1.17504,0.33259 1.78165,0.0483 m 0.45254,0.96562 c -0.99038,0.46414 -1.91909,0.50682 -2.78613,0.12803 -0.86703,-0.3788 -1.56744,-1.13767 -2.10121,-2.2766 -0.53183,-1.13482 -0.6669,-2.15864 -0.40519,-3.07146 0.26365,-0.9087 0.89067,-1.59512 1.88104,-2.05927 0.99451,-0.46608 1.92529,-0.50973 2.79232,-0.13093 0.86485,0.38486 1.56319,1.14469 2.09503,2.27951 0.53377,1.13893 0.67089,2.16178 0.41137,3.06855 -0.26364,0.90869 -0.89272,1.59608 -1.88723,2.06217"
         style="font-size:14px"
         id="path4088" />
      <path
         d="m 151.97731,896.86887 -1.53742,-4.35785 1.18616,-0.41847 1.52378,4.31917 c 0.24108,0.68332 0.55473,1.14774 0.94096,1.39326 0.38624,0.24551 0.84582,0.27426 1.37873,0.0863 0.64035,-0.22592 1.07331,-0.60821 1.29887,-1.14688 0.22556,-0.53868 0.21401,-1.16042 -0.0346,-1.86524 l -1.43963,-4.08064 1.1926,-0.42075 2.54722,7.2201 -1.19261,0.42075 -0.39573,-1.1217 c -0.13051,0.53413 -0.34911,0.97611 -0.65579,1.32594 -0.31098,0.35134 -0.71788,0.61571 -1.22071,0.79311 -0.82945,0.29262 -1.54789,0.25612 -2.1553,-0.10949 -0.6059,-0.36133 -1.08472,-1.04052 -1.43649,-2.03757"
         style="font-size:14px"
         id="path4090" />
      <path
         d="m 142.63626,898.79849 -0.14603,-0.59765 5.61795,-1.37263 c -0.25864,-0.82817 -0.66782,-1.40844 -1.22755,-1.74081 -0.56307,-0.32687 -1.24968,-0.39133 -2.05984,-0.19339 -0.46926,0.11466 -0.90898,0.28308 -1.31914,0.50527 -0.41457,0.22327 -0.81067,0.50301 -1.18828,0.83922 l -0.28232,-1.15546 c 0.39286,-0.29303 0.80759,-0.54448 1.24421,-0.75437 0.43662,-0.20989 0.89178,-0.3727 1.36547,-0.48844 1.18646,-0.28988 2.21158,-0.17443 3.07536,0.34638 0.85936,0.52188 1.43291,1.37162 1.72063,2.54922 0.29745,1.21744 0.20565,2.26258 -0.2754,3.13543 -0.48441,0.87834 -1.28442,1.45381 -2.40004,1.7264 -1.00051,0.24444 -1.86971,0.11434 -2.60758,-0.3903 -0.74121,-0.49915 -1.24702,-1.30211 -1.51744,-2.40887 m 1.30948,0.0601 c 0.17219,0.66631 0.49068,1.1538 0.95547,1.46247 0.46038,0.30973 0.9916,0.39105 1.59368,0.24395 0.68177,-0.16659 1.18146,-0.49275 1.49907,-0.97849 0.31319,-0.48467 0.41532,-1.08432 0.30639,-1.79893 l -4.35461,1.071"
         style="font-size:14px"
         id="path4092" />
    </g>
    <g
       transform="matrix(-0.49244114,-0.87034575,0.87034575,-0.49244114,-242.84887,1572.7383)"
       inkscape:transform-center-x="-24.443402"
       inkscape:transform-center-y="-52.097812"
       style="font-size:11px;font-style:normal;font-weight:normal;text-align:start;line-height:125%;letter-spacing:0px;word-spacing:0px;text-anchor:start;fill:#000000;fill-opacity:1;stroke:none;font-family:Sans"
       id="text3849">
      <path
         d="m 435.89243,859.58815 -0.0316,1.38049 -10.20338,-0.23352 0.0316,-1.3805 10.20338,0.23353"
         style="font-size:14px"
         id="path4095" />
      <path
         d="m 429.57914,870.20673 -4.59997,-0.44131 0.12012,-1.25206 4.55915,0.43739 c 0.72129,0.0692 1.27462,-0.0196 1.65999,-0.26652 0.38536,-0.24688 0.60502,-0.65158 0.659,-1.2141 0.0648,-0.67593 -0.0995,-1.22964 -0.49303,-1.66112 -0.39355,-0.43148 -0.9623,-0.68291 -1.70628,-0.75428 l -4.30737,-0.41325 0.12078,-1.25886 7.62125,0.73117 -0.12077,1.25886 -1.18402,-0.11359 c 0.42945,0.34336 0.73823,0.7278 0.92632,1.15331 0.18765,0.43003 0.25601,0.91044 0.2051,1.44121 -0.084,0.87553 -0.41973,1.51174 -1.00719,1.90863 -0.58293,0.39731 -1.40062,0.54548 -2.45308,0.44452"
         style="font-size:14px"
         id="path4097" />
      <path
         d="m 429.99572,878.47111 4.06323,0.80689 -0.24499,1.23372 -10.433,-2.07182 0.245,-1.23372 1.12644,0.22369 c -0.39551,-0.34803 -0.66328,-0.74271 -0.80331,-1.18403 -0.13645,-0.43597 -0.14964,-0.9311 -0.0396,-1.48537 0.1802,-0.90742 0.68918,-1.5753 1.52694,-2.00366 0.83688,-0.42389 1.84535,-0.51866 3.02544,-0.28431 1.18007,0.23434 2.07582,0.70726 2.68723,1.41875 0.61051,0.71596 0.82567,1.52765 0.64549,2.43506 -0.11008,0.55428 -0.31369,1.00635 -0.61083,1.35622 -0.29357,0.35522 -0.68959,0.61807 -1.18807,0.78858 m -1.78681,-4.72466 c -0.90741,-0.1802 -1.65721,-0.13628 -2.24941,0.13176 -0.58862,0.2734 -0.94772,0.73641 -1.07732,1.38903 -0.1296,0.65262 0.0253,1.21771 0.46483,1.69528 0.44395,0.47844 1.11964,0.80776 2.02705,0.98797 0.90741,0.18019 1.65542,0.13359 2.24404,-0.1398 0.59308,-0.27252 0.95442,-0.73509 1.08403,-1.3877 0.12959,-0.65263 -0.0276,-1.21816 -0.47154,-1.69661 -0.44038,-0.47309 -1.11427,-0.79974 -2.02168,-0.97993"
         style="font-size:14px"
         id="path4099" />
      <path
         d="m 430.07626,882.97252 -0.33377,1.21272 -7.38178,-2.03159 0.33376,-1.21273 7.38179,2.0316 m 2.87362,0.79087 -0.33376,1.21272 -1.53568,-0.42264 0.33376,-1.21272 1.53568,0.42264"
         style="font-size:14px"
         id="path4101" />
      <path
         d="m 424.12391,889.24645 c 0.33843,-0.95828 0.46333,-1.66089 0.37469,-2.10784 -0.0886,-0.44696 -0.39724,-0.76377 -0.92579,-0.95044 -0.42112,-0.14873 -0.80486,-0.1296 -1.15123,0.0574 -0.34358,0.19281 -0.5996,0.52771 -0.76806,1.0047 -0.2322,0.65746 -0.18606,1.26582 0.13841,1.82506 0.32725,0.56506 0.87762,0.98417 1.65111,1.25735 l 0.26428,0.0933 0.41659,-1.17957 m -0.34558,2.5386 -4.11884,-1.45465 0.41887,-1.18602 1.09578,0.38699 c -0.3427,-0.42552 -0.548,-0.87743 -0.61591,-1.35572 -0.0636,-0.47679 0.008,-1.00739 0.21419,-1.5918 0.26103,-0.73911 0.67521,-1.25498 1.24254,-1.5476 0.5701,-0.2868 1.20323,-0.30728 1.89937,-0.0614 0.81216,0.28683 1.3289,0.77382 1.55021,1.46096 0.21979,0.69143 0.13922,1.57644 -0.24171,2.65503 l -0.58732,1.66301 0.11602,0.041 c 0.54574,0.19274 1.0306,0.16098 1.45459,-0.0952 0.42676,-0.25044 0.75473,-0.70009 0.9839,-1.34896 0.14568,-0.41253 0.23817,-0.83177 0.27744,-1.25772 0.0393,-0.42595 0.0238,-0.85431 -0.0464,-1.28508 l 1.09578,0.387 c 0.0143,0.4932 -0.01,0.95833 -0.0723,1.3954 -0.0582,0.43858 -0.15565,0.85124 -0.29223,1.238 -0.36879,1.0442 -0.91496,1.72853 -1.63852,2.05297 -0.72356,0.32443 -1.63538,0.2924 -2.73545,-0.0961"
         style="font-size:14px"
         id="path4103" />
      <path
         d="m 420.15705,900.46407 -4.18341,-1.96306 0.53433,-1.13868 4.14627,1.94564 c 0.65598,0.30781 1.20694,0.41029 1.6529,0.30745 0.44595,-0.10286 0.78896,-0.41007 1.02902,-0.92164 0.28846,-0.61473 0.31996,-1.19145 0.0945,-1.73017 -0.22545,-0.53872 -0.67648,-0.96683 -1.35308,-1.28433 l -3.9173,-1.83819 0.53723,-1.14487 6.93108,3.25242 -0.53722,1.14486 -1.0768,-0.50528 c 0.28891,0.46782 0.45036,0.93372 0.48435,1.39771 0.032,0.46809 -0.0652,0.9435 -0.29169,1.42621 -0.37365,0.79624 -0.90384,1.28242 -1.59057,1.45856 -0.68261,0.17805 -1.50249,0.0425 -2.45964,-0.40663"
         style="font-size:14px"
         id="path4105" />
      <path
         d="m 414.22655,913.08377 c 0.27933,0.58325 0.40224,1.1311 0.36872,1.64353 -0.0335,0.51242 -0.22151,1.01034 -0.564,1.49377 -0.46104,0.65075 -1.0454,0.99074 -1.75307,1.01998 -0.70395,0.0319 -1.47613,-0.24992 -2.31654,-0.84531 l -3.7707,-2.6714 0.73108,-1.03192 3.73723,2.64769 c 0.5987,0.42414 1.11816,0.63299 1.55838,0.62653 0.44022,-0.006 0.81445,-0.22726 1.12269,-0.66233 0.37673,-0.53177 0.4978,-1.07712 0.36319,-1.63603 -0.1346,-0.55894 -0.50683,-1.05443 -1.11669,-1.48648 l -3.53084,-2.50147 0.73108,-1.03192 3.73723,2.64769 c 0.60241,0.42678 1.12187,0.63562 1.55838,0.62653 0.44022,-0.006 0.81708,-0.23098 1.13059,-0.67348 0.37146,-0.52434 0.48803,-1.06728 0.34971,-1.62884 -0.1346,-0.55893 -0.50498,-1.0531 -1.11111,-1.48252 l -3.53084,-2.50148 0.73108,-1.03192 6.2473,4.42599 -0.73108,1.03192 -0.97056,-0.68761 c 0.21704,0.50563 0.30075,0.9866 0.25113,1.44294 -0.0496,0.45633 -0.23383,0.90947 -0.5526,1.35943 -0.32142,0.45367 -0.70937,0.75687 -1.16385,0.90963 -0.45713,0.15645 -0.9591,0.15548 -1.50591,-0.003"
         style="font-size:14px"
         id="path4107" />
      <path
         d="m 406.79291,917.53724 3.41326,3.13539 -0.8509,0.92632 -3.37802,-3.10303 c -0.53364,-0.4902 -1.03028,-0.75457 -1.48992,-0.79312 -0.45628,-0.0355 -0.87557,0.15487 -1.25786,0.57104 -0.45937,0.50008 -0.6622,1.04087 -0.6085,1.62239 0.0506,0.58487 0.35114,1.13011 0.90156,1.63573 l 3.19678,2.93654 -0.8509,0.92631 -5.63842,-5.17941 0.8509,-0.92632 0.8659,0.79542 c -0.13577,-0.53934 -0.15037,-1.03543 -0.0438,-1.48828 0.10686,-0.44641 0.34064,-0.86596 0.70134,-1.25863 0.59502,-0.64775 1.24805,-0.95445 1.95909,-0.92011 0.71104,0.0343 1.45421,0.40759 2.22949,1.11976 m 1.40805,5.59114 0,0"
         style="font-size:14px"
         id="path4109" />
      <path
         d="m 399.73387,930.80954 -0.79938,-0.88078 c 0.38573,-0.10392 0.75096,-0.25077 1.09569,-0.44054 0.34473,-0.18979 0.66895,-0.4225 0.97267,-0.69814 0.46232,-0.41961 0.7456,-0.80594 0.84981,-1.159 0.10084,-0.35001 0.0226,-0.66675 -0.23465,-0.95022 -0.19602,-0.21598 -0.43337,-0.31136 -0.71204,-0.28614 -0.27562,0.0286 -0.71369,0.21384 -1.31421,0.55577 l -0.38323,0.21856 c -0.79006,0.45857 -1.44138,0.6835 -1.95393,0.67481 -0.51287,-0.002 -0.9791,-0.23457 -1.39871,-0.69689 -0.47778,-0.52645 -0.64681,-1.13311 -0.50707,-1.81999 0.13638,-0.68382 0.56902,-1.3565 1.29795,-2.01806 0.30372,-0.27565 0.6485,-0.53318 1.03434,-0.77259 0.37941,-0.23972 0.80495,-0.46591 1.27661,-0.67858 l 0.87289,0.96178 c -0.50654,0.13354 -0.96821,0.30637 -1.38499,0.51847 -0.41372,0.21547 -0.78426,0.47175 -1.1116,0.76884 -0.4387,0.39816 -0.70879,0.77868 -0.81025,1.14156 -0.0984,0.36625 -0.0236,0.68605 0.22452,0.9594 0.22971,0.2531 0.49188,0.36904 0.78649,0.34783 0.29125,-0.0182 0.78206,-0.22667 1.47245,-0.62554 l 0.39288,-0.21809 c 0.68733,-0.40226 1.27255,-0.5949 1.75567,-0.57794 0.48618,0.0203 0.92835,0.24984 1.32651,0.68855 0.48392,0.53319 0.6686,1.11641 0.55404,1.74967 -0.11457,0.63324 -0.51944,1.26533 -1.21462,1.89627 -0.34421,0.3124 -0.69115,0.58111 -1.04081,0.80615 -0.34966,0.22502 -0.69867,0.4033 -1.04703,0.53484"
         style="font-size:14px"
         id="path4111" />
      <path
         d="m 397.63783,932.81192 -0.98261,0.78522 -4.77961,-5.98108 0.98261,-0.78523 4.77961,5.98109 m 1.86064,2.32835 -0.98261,0.78523 -0.99433,-1.24428 0.98261,-0.78523 0.99433,1.24428"
         style="font-size:14px"
         id="path4113" />
      <path
         d="m 389.50154,938.42776 -0.67259,-0.9644 c 0.40366,-0.0426 0.78052,-0.12765 1.13056,-0.2551 0.34892,-0.12111 0.6729,-0.28595 0.97194,-0.49449 0.6691,-0.46666 1.04008,-1.0421 1.11295,-1.72631 0.0755,-0.68049 -0.15401,-1.40388 -0.68844,-2.17016 -0.53443,-0.76629 -1.13527,-1.23345 -1.80253,-1.40149 -0.66465,-0.16431 -1.33152,-0.0131 -2.00062,0.45352 -0.29904,0.20855 -0.56697,0.45375 -0.80379,0.7356 -0.23794,0.28818 -0.44665,0.61431 -0.62612,0.97839 l -0.66477,-0.95318 c 0.19398,-0.33531 0.42263,-0.6448 0.68595,-0.92846 0.25959,-0.28105 0.5632,-0.54281 0.91083,-0.78525 0.94572,-0.65957 1.90431,-0.8864 2.87578,-0.6805 0.97147,0.2059 1.80914,0.81348 2.51303,1.82274 0.71431,1.02421 0.99576,2.02527 0.84436,3.00318 -0.15515,0.98051 -0.72239,1.81229 -1.70175,2.49532 -0.31773,0.22159 -0.65144,0.40432 -1.00114,0.54821 -0.3471,0.14761 -0.70831,0.25507 -1.08365,0.32238"
         style="font-size:14px"
         id="path4115" />
      <path
         d="m 378.47883,947.3986 -0.60378,-1.20374 c 0.58084,-0.0109 1.1066,-0.0656 1.57727,-0.16403 0.47067,-0.0984 0.8995,-0.2447 1.28649,-0.4388 0.67214,-0.33715 1.12614,-0.72802 1.36199,-1.17261 0.23178,-0.44257 0.22712,-0.90419 -0.014,-1.38486 -0.20228,-0.40329 -0.47569,-0.64854 -0.82024,-0.73573 -0.34658,-0.0811 -0.88964,-0.0152 -1.6292,0.19773 l -0.82208,0.22115 c -1.00849,0.28661 -1.84203,0.31722 -2.50062,0.0918 -0.66061,-0.21928 -1.17685,-0.69962 -1.54873,-1.441 -0.44338,-0.88397 -0.48213,-1.70323 -0.11624,-2.45778 0.36183,-0.75252 1.11508,-1.41585 2.25975,-1.99 0.4318,-0.21659 0.91663,-0.3986 1.4545,-0.54602 0.53379,-0.14538 1.10941,-0.25311 1.72686,-0.32319 l 0.6375,1.27095 c -0.64203,-0.0297 -1.23915,0.005 -1.79135,0.10316 -0.55219,0.0985 -1.06048,0.26426 -1.52487,0.49719 -0.70472,0.35349 -1.17908,0.76476 -1.42305,1.23383 -0.24397,0.46907 -0.23724,0.96024 0.0202,1.47351 0.22476,0.44809 0.53898,0.72895 0.94266,0.84257 0.39962,0.11566 0.94476,0.0793 1.63543,-0.10907 l 0.82513,-0.23034 c 1.01258,-0.27847 1.82265,-0.32535 2.43024,-0.14065 0.60758,0.18469 1.08607,0.62532 1.43547,1.32191 0.40456,0.80656 0.4402,1.58404 0.1069,2.33245 -0.33737,0.75044 -1.00506,1.37596 -2.00309,1.87656 -0.42772,0.21454 -0.88301,0.39446 -1.36585,0.53979 -0.48284,0.14531 -0.99527,0.25703 -1.53731,0.33518"
         style="font-size:14px"
         id="path4117" />
      <path
         d="m 371.21839,947.05579 c 0.62983,-0.24133 1.03316,-0.67893 1.21,-1.3128 0.17846,-0.62963 0.10382,-1.37213 -0.22392,-2.2275 -0.32775,-0.85538 -0.76706,-1.46059 -1.31793,-1.81564 -0.55349,-0.34917 -1.14728,-0.40227 -1.78137,-0.15932 -0.62557,0.2397 -1.02678,0.67648 -1.20362,1.31036 -0.17683,0.63388 -0.10219,1.37638 0.22392,2.2275 0.32449,0.84686 0.7643,1.447 1.31942,1.80043 0.55676,0.35767 1.14793,0.41666 1.7735,0.17697 m 0.38155,0.99581 c -1.02134,0.39133 -1.9507,0.36676 -2.78809,-0.0737 -0.83738,-0.44049 -1.4811,-1.24801 -1.93114,-2.42254 -0.4484,-1.1703 -0.5091,-2.2012 -0.18208,-3.09272 0.32865,-0.88726 1.00364,-1.52656 2.02498,-1.9179 1.02561,-0.39296 1.9571,-0.36921 2.79448,0.0713 0.83477,0.44637 1.47635,1.2547 1.92476,2.42499 0.45003,1.17454 0.51286,2.20463 0.18847,3.09027 -0.32865,0.88725 -1.00578,1.52737 -2.03138,1.92034"
         style="font-size:14px"
         id="path4119" />
      <path
         d="m 364.44949,945.49663 1.22142,4.47093 -1.21335,0.33147 -1.20881,-4.42476 c -0.19096,-0.699 -0.47076,-1.18711 -0.83941,-1.46434 -0.36744,-0.27284 -0.82372,-0.3348 -1.36885,-0.18587 -0.65503,0.17895 -1.11453,0.52888 -1.37852,1.04981 -0.26836,0.52212 -0.30407,1.14367 -0.10711,1.86465 l 1.14396,4.18737 -1.21335,0.33148 -2.01769,-7.3856 1.21335,-0.33148 0.30986,1.13422 c 0.17205,-0.52888 0.42367,-0.95667 0.75488,-1.28337 0.32802,-0.3211 0.7492,-0.55191 1.26355,-0.69243 0.84847,-0.23179 1.56457,-0.14397 2.14831,0.26348 0.58374,0.40744 1.01433,1.11892 1.29176,2.13444 m -1.78309,5.48307 0,0"
         style="font-size:14px"
         id="path4121" />
      <path
         d="m 349.40495,950.43738 -0.76266,-4.55772 1.24056,-0.20759 0.75589,4.51727 c 0.11959,0.71467 0.34844,1.22623 0.68653,1.5347 0.3381,0.30845 0.78582,0.41604 1.34317,0.32279 0.66973,-0.11208 1.16214,-0.41395 1.47724,-0.90564 0.3151,-0.49169 0.41098,-1.10611 0.28763,-1.84325 l -0.71415,-4.26781 1.24731,-0.20871 1.26357,7.55126 -1.2473,0.20871 -0.19631,-1.17314 c -0.22069,0.50361 -0.51225,0.90125 -0.87468,1.19294 -0.36693,0.29242 -0.81333,0.48264 -1.33923,0.57065 -0.86749,0.14515 -1.56886,-0.0147 -2.1041,-0.47964 -0.53448,-0.46043 -0.88897,-1.21203 -1.06347,-2.25482"
         style="font-size:14px"
         id="path4123" />
      <path
         d="m 341.53107,952.97547 0.27211,4.13363 -1.2551,0.0826 -0.69869,-10.61374 1.2551,-0.0826 0.0754,1.14595 c 0.23382,-0.47211 0.54575,-0.83289 0.9358,-1.08236 0.38582,-0.24462 0.86066,-0.38549 1.42454,-0.42261 0.92313,-0.0608 1.69998,0.25803 2.33055,0.9564 0.62602,0.69867 0.97855,1.64827 1.05758,2.8488 0.079,1.20052 -0.14598,2.18813 -0.67501,2.96284 -0.53357,0.775 -1.26193,1.19288 -2.18506,1.25366 -0.56388,0.0371 -1.05325,-0.0426 -1.46809,-0.23904 -0.41909,-0.19165 -0.77548,-0.50615 -1.06917,-0.94353 m 4.1013,-2.94862 c -0.0608,-0.92313 -0.29723,-1.63603 -0.7094,-2.13868 -0.4164,-0.49782 -0.95657,-0.72487 -1.6205,-0.68116 -0.66393,0.0437 -1.16967,0.33961 -1.51724,0.88771 -0.34725,0.55265 -0.4905,1.29054 -0.42973,2.21367 0.0608,0.92313 0.29936,1.6336 0.71577,2.13142 0.41671,0.50235 0.95703,0.73167 1.62095,0.68798 0.66393,-0.0437 1.16953,-0.34189 1.51679,-0.89454 0.34301,-0.54781 0.48413,-1.28327 0.42336,-2.2064"
         style="font-size:14px"
         id="path4125" />
      <path
         d="m 332.44021,956.74148 -7.98828,-0.69615 0.0914,-1.04876 7.12254,-7.40079 -6.58539,-0.5739 0.10089,-1.15772 8.30154,0.72345 -0.0914,1.04876 -7.12254,7.40079 6.27213,0.5466 -0.10089,1.15772"
         style="font-size:14px"
         id="path4127" />
      <path
         d="m 319.05892,951.62918 c 0.66242,0.12697 1.23585,-0.0322 1.72029,-0.47766 0.48358,-0.44094 0.81159,-1.11122 0.98404,-2.01086 0.17244,-0.89964 0.1182,-1.64551 -0.16272,-2.23763 -0.28626,-0.5885 -0.76283,-0.94667 -1.42973,-1.0745 -0.65794,-0.12611 -1.22913,0.0335 -1.71358,0.47895 -0.48443,0.44541 -0.81244,1.11569 -0.98404,2.01086 -0.17072,0.89068 -0.11338,1.63251 0.17201,2.22549 0.28455,0.59744 0.75579,0.95923 1.41373,1.08535 m -0.20076,1.04734 c -1.07419,-0.20591 -1.85096,-0.71674 -2.33031,-1.5325 -0.47934,-0.81577 -0.60062,-1.84131 -0.36384,-3.07663 0.23594,-1.23085 0.72784,-2.13885 1.47572,-2.72402 0.74703,-0.58069 1.65764,-0.76808 2.73182,-0.56218 1.07868,0.20677 1.85769,0.71803 2.33703,1.53379 0.47402,0.81938 0.59306,1.84449 0.35713,3.07534 -0.23679,1.23532 -0.72646,2.14375 -1.46901,2.72531 -0.74702,0.58068 -1.65986,0.76764 -2.73854,0.56089"
         style="font-size:14px"
         id="path4129" />
      <path
         d="m 307.44833,946.42209 1.31478,-4.4301 1.20583,0.35786 -1.30311,4.39079 c -0.20616,0.69466 -0.22502,1.25476 -0.0566,1.6803 0.16845,0.42553 0.52355,0.71869 1.06529,0.87948 0.65098,0.19319 1.22592,0.13802 1.72482,-0.16551 0.49891,-0.30355 0.85469,-0.81357 1.06734,-1.53007 l 1.23114,-4.14831 1.21239,0.35981 -2.17834,7.33983 -1.21238,-0.35982 0.33842,-1.14029 c -0.41931,0.35568 -0.85579,0.58504 -1.30947,0.6881 -0.45803,0.10174 -0.94263,0.0768 -1.4538,-0.0749 -0.8432,-0.25025 -1.40327,-0.70169 -1.68021,-1.35433 -0.27821,-0.64827 -0.26692,-1.4792 0.0339,-2.4928"
         style="font-size:14px"
         id="path4131" />
      <path
         d="m 298.75458,942.49838 0.23278,-0.5695 5.35329,2.18809 c 0.27699,-0.82221 0.28655,-1.53218 0.0287,-2.12991 -0.26381,-0.59523 -0.7817,-1.05061 -1.55369,-1.36615 -0.44716,-0.18277 -0.90197,-0.30467 -1.36444,-0.36569 -0.46668,-0.0627 -0.95155,-0.0689 -1.45464,-0.0185 l 0.45003,-1.10103 c 0.49006,-0.006 0.97342,0.0335 1.45007,0.12006 0.47666,0.0865 0.94068,0.22202 1.39206,0.40652 1.13056,0.4621 1.8925,1.15755 2.28582,2.08634 0.38911,0.92708 0.35433,1.95167 -0.10432,3.0738 -0.47417,1.16008 -1.16223,1.95212 -2.06418,2.37612 -0.90788,0.42648 -1.89335,0.42246 -2.95643,-0.012 -0.95337,-0.38969 -1.5805,-1.00542 -1.8814,-1.8472 -0.30681,-0.83929 -0.24469,-1.78624 0.18636,-2.84087 m 1.02465,0.81759 c -0.25192,0.64045 -0.28041,1.22206 -0.0855,1.74484 0.19074,0.52105 0.57297,0.89883 1.14668,1.13333 0.64965,0.26553 1.24564,0.29497 1.78797,0.0883 0.53812,-0.20838 0.97292,-0.63376 1.30441,-1.27614 l -4.1536,-1.69035"
         style="font-size:14px"
         id="path4133" />
    </g>
    <g
       transform="matrix(-0.63072638,0.7760053,-0.7760053,-0.63072638,1140.3588,1340.4683)"
       inkscape:transform-center-x="76.326771"
       inkscape:transform-center-y="19.261496"
       style="font-size:14px;font-style:normal;font-weight:normal;text-align:start;line-height:125%;letter-spacing:0px;word-spacing:0px;text-anchor:start;fill:#000000;fill-opacity:1;stroke:none;font-family:Sans"
       id="text3941">
      <path
         d="m 351.02631,943.62751 -0.0316,1.3805 -9.49263,-0.21726 c -1.23015,-0.0281 -2.11777,-0.28323 -2.66288,-0.76523 -0.5452,-0.47744 -0.80597,-1.23328 -0.7823,-2.26751 l 0.012,-0.52623 1.1618,0.0266 -0.01,0.43055 c -0.014,0.61051 0.14703,1.04498 0.483,1.30338 0.33597,0.25841 0.9459,0.39772 1.82978,0.41796 l 9.49263,0.21725"
         style=""
         id="path4136" />
      <path
         d="m 344.22091,951.2943 c 0.0953,-1.0118 0.0457,-1.7237 -0.14893,-2.1357 -0.19463,-0.412 -0.57098,-0.6443 -1.12906,-0.69688 -0.44464,-0.0419 -0.81222,0.0699 -1.10274,0.33552 -0.28641,0.27055 -0.45335,0.65764 -0.5008,1.16127 -0.0654,0.69418 0.12722,1.27308 0.5779,1.73668 0.4548,0.46855 1.09054,0.74131 1.90724,0.81827 l 0.27903,0.0263 0.11736,-1.24546 m 0.28188,2.54646 -4.3489,-0.40979 0.118,-1.25227 1.15699,0.10902 c -0.43586,-0.32945 -0.74486,-0.7179 -0.92699,-1.16534 -0.1776,-0.44702 -0.23732,-0.97906 -0.17918,-1.59612 0.0735,-0.7804 0.34989,-1.38147 0.82907,-1.80322 0.48329,-0.41678 1.09245,-0.59055 1.82747,-0.52128 0.85753,0.0808 1.47715,0.42757 1.85885,1.0403 0.38127,0.61726 0.51825,1.49531 0.41094,2.63415 l -0.16545,1.75589 0.1225,0.0115 c 0.57622,0.0543 1.03882,-0.0944 1.3878,-0.44599 0.35309,-0.34667 0.56191,-0.86256 0.62648,-1.54767 0.041,-0.43557 0.0288,-0.86472 -0.0366,-1.28743 -0.0655,-0.42272 -0.18458,-0.83447 -0.35738,-1.23526 l 1.15699,0.10902 c 0.13376,0.47493 0.22344,0.93197 0.26904,1.37113 0.0501,0.43958 0.0559,0.86355 0.0175,1.2719 -0.1039,1.10253 -0.46734,1.89909 -1.09032,2.38969 -0.623,0.49059 -1.51525,0.68116 -2.67677,0.57172"
         style=""
         id="path4138" />
      <path
         d="m 347.39245,956.86498 -1.09273,5.87384 -1.12906,-0.21005 -4.54493,-5.65713 -0.86518,4.65067 -0.98793,-0.18379 1.12398,-6.04184 1.12907,0.21004 4.54492,5.65714 0.83393,-4.48266 0.98793,0.18378"
         style=""
         id="path4140" />
      <path
         d="m 345.84047,964.70937 -1.57912,5.76215 -1.1076,-0.30354 -4.05695,-6.0167 -1.25029,4.56225 -0.96915,-0.26559 1.62429,-5.92697 1.1076,0.30353 4.05695,6.0167 1.20512,-4.39743 0.96915,0.2656"
         style=""
         id="path4142" />
      <path
         d="m 341.34338,984.07466 -1.23479,-0.53743 c 0.43897,-0.38052 0.80762,-0.75934 1.10596,-1.13645 0.29833,-0.37713 0.53388,-0.76417 0.70666,-1.16114 0.30008,-0.68948 0.39825,-1.28046 0.29451,-1.77293 -0.10558,-0.48831 -0.40491,-0.83976 -0.89798,-1.05436 -0.41369,-0.18006 -0.78075,-0.19319 -1.10116,-0.0394 -0.31806,0.15978 -0.69281,0.55831 -1.12424,1.1956 l -0.48953,0.69649 c -0.59071,0.86617 -1.2111,1.42369 -1.86118,1.67258 -0.64771,0.25486 -1.35183,0.2168 -2.11234,-0.11419 -0.90677,-0.39467 -1.4614,-0.99889 -1.66388,-1.81266 -0.20429,-0.80961 -0.0509,-1.80151 0.46014,-2.97571 0.19278,-0.44294 0.44844,-0.89331 0.76697,-1.35109 0.31672,-0.45362 0.68967,-0.90512 1.11886,-1.35451 l 1.30374,0.56744 c -0.51203,0.38848 -0.94847,0.79744 -1.30933,1.22687 -0.36086,0.42942 -0.64496,0.88232 -0.85229,1.35869 -0.31463,0.7229 -0.41536,1.34259 -0.30217,1.85906 0.11319,0.51646 0.43305,0.88927 0.95956,1.11844 0.45965,0.20005 0.88085,0.21438 1.2636,0.043 0.38093,-0.16722 0.7762,-0.54439 1.18582,-1.13152 l 0.48599,-0.70549 c 0.59906,-0.86254 1.19101,-1.41753 1.77586,-1.66498 0.58483,-0.24745 1.23453,-0.21567 1.94909,0.0953 0.82736,0.3601 1.35283,0.93423 1.57641,1.7224 0.22174,0.79234 0.10982,1.7004 -0.33575,2.72418 -0.19097,0.43875 -0.42527,0.86859 -0.7029,1.28952 -0.27764,0.42091 -0.59951,0.83499 -0.96563,1.24226"
         style=""
         id="path4144" />
      <path
         d="m 335.54954,988.46192 c 0.32888,-0.58887 0.35811,-1.18327 0.0877,-1.78322 -0.26646,-0.59773 -0.79955,-1.11993 -1.59928,-1.56659 -0.79974,-0.44666 -1.52482,-0.62978 -2.17524,-0.54936 -0.64867,0.0866 -1.13856,0.42635 -1.46967,1.01919 -0.32666,0.58488 -0.35478,1.17729 -0.0844,1.77725 0.27043,0.59994 0.80353,1.12214 1.59928,1.56659 0.79178,0.44221 1.51399,0.62112 2.16664,0.53673 0.65663,-0.0822 1.14827,-0.41572 1.47494,-1.00059 m 0.93103,0.52 c -0.53333,0.9549 -1.26256,1.53156 -2.18769,1.73 -0.92513,0.19842 -1.93677,-0.009 -3.03491,-0.62235 -1.09417,-0.61112 -1.80136,-1.36366 -2.12159,-2.25763 -0.31624,-0.89176 -0.2077,-1.81509 0.32562,-2.77 0.53556,-0.95889 1.2659,-1.53754 2.19103,-1.73597 0.92689,-0.19223 1.93741,0.0172 3.03158,0.62832 1.09814,0.61333 1.80645,1.36388 2.12492,2.25166 0.31624,0.89175 0.20659,1.81707 -0.32896,2.77597"
         style=""
         id="path4146" />
      <path
         d="m 329.35559,991.60066 3.80475,2.64668 -0.71827,1.03256 -3.76547,-2.61935 c -0.59484,-0.4138 -1.12259,-0.60881 -1.58323,-0.58505 -0.4569,0.0263 -0.8467,0.27148 -1.16941,0.73539 -0.38776,0.55743 -0.51584,1.12063 -0.38424,1.6896 0.129,0.57271 0.50027,1.07247 1.11382,1.49927 l 3.56344,2.47882 -0.71827,1.03256 -6.28513,-4.37209 0.71827,-1.03256 0.96522,0.67143 c -0.20724,-0.51611 -0.28857,-1.00571 -0.24402,-1.46879 0.0457,-0.45674 0.2208,-0.90397 0.52528,-1.34168 0.50227,-0.72205 1.108,-1.11398 1.81718,-1.1758 0.70918,-0.0618 1.49587,0.20785 2.36008,0.80901 m 2.14887,5.35031 0,0"
         style=""
         id="path4148" />
      <path
         d="m 320.99129,1005.0423 -3.51139,-3.0041 0.81768,-0.9558 3.48023,2.9775 c 0.5506,0.471 1.05453,0.7162 1.51178,0.7356 0.45725,0.019 0.86956,-0.1857 1.23693,-0.6151 0.44143,-0.516 0.62505,-1.0636 0.55086,-1.6429 -0.0742,-0.5792 -0.39525,-1.1118 -0.96316,-1.5977 l -3.28804,-2.81298 0.82213,-0.96096 5.81769,4.97724 -0.82213,0.9609 -0.90382,-0.7732 c 0.15422,0.5278 0.18607,1.0198 0.0955,1.4761 -0.0935,0.4598 -0.31355,0.8923 -0.66017,1.2975 -0.57179,0.6683 -1.21211,0.9961 -1.92096,0.9835 -0.70538,-0.01 -1.45977,-0.3583 -2.26317,-1.0456"
         style=""
         id="path4150" />
      <path
         d="m 316.58915,1012.0451 2.86403,2.993 -0.90878,0.8696 -7.35384,-7.6851 0.90878,-0.8696 0.79399,0.8297 c -0.12409,-0.512 -0.11681,-0.9889 0.0218,-1.4306 0.13853,-0.4353 0.41193,-0.8483 0.82022,-1.239 0.66842,-0.6396 1.46857,-0.8944 2.40045,-0.7642 0.92859,0.1332 1.80878,0.6345 2.64058,1.5038 0.83179,0.8692 1.29381,1.7706 1.38607,2.7042 0.089,0.9367 -0.20078,1.7249 -0.86919,2.3645 -0.40829,0.3906 -0.83451,0.644 -1.27865,0.7599 -0.44428,0.1223 -0.91945,0.1103 -1.4255,-0.036 m 1.24885,-4.8945 c -0.6396,-0.6684 -1.27879,-1.0628 -1.91756,-1.1833 -0.63892,-0.114 -1.19875,0.059 -1.67948,0.5191 -0.48073,0.46 -0.67822,1.0116 -0.59247,1.655 0.0889,0.6466 0.45315,1.3041 1.09275,1.9725 0.6396,0.6684 1.27886,1.0596 1.91778,1.1736 0.64207,0.1173 1.20348,-0.054 1.68421,-0.5141 0.48073,-0.46 0.67664,-1.0133 0.58774,-1.6599 -0.089,-0.6402 -0.45337,-1.2945 -1.09297,-1.9629"
         style=""
         id="path4152" />
      <path
         d="m 312.02889,1020.7755 -6.57491,4.59 -0.6026,-0.8632 0.717,-10.2464 -5.42024,3.7839 -0.66521,-0.9529 6.83275,-4.7699 0.6026,0.8632 -0.717,10.2463 5.1624,-3.6038 0.66521,0.9528"
         style=""
         id="path4154" />
      <path
         d="m 298.4836,1025.4363 c 0.58963,-0.3275 0.9274,-0.8175 1.01333,-1.4699 0.0881,-0.6485 -0.0902,-1.3731 -0.53497,-2.1739 -0.44479,-0.8008 -0.96486,-1.3382 -1.56019,-1.6122 -0.5971,-0.2679 -1.19246,-0.2369 -1.78607,0.093 -0.58564,0.3253 -0.92143,0.8142 -1.00736,1.4666 -0.0859,0.6524 0.0924,1.3771 0.53498,2.1739 0.44036,0.7928 0.9602,1.3251 1.55952,1.5969 0.60153,0.2758 1.19511,0.2511 1.78076,-0.074 m 0.51781,0.9323 c -0.95615,0.5311 -1.87973,0.6374 -2.77075,0.3191 -0.89101,-0.3183 -1.6419,-1.0273 -2.25266,-2.1269 -0.60853,-1.0956 -0.81361,-2.1077 -0.61524,-3.0363 0.2006,-0.9247 0.77897,-1.6526 1.73512,-2.1837 0.96014,-0.5333 1.88572,-0.6408 2.77673,-0.3224 0.88924,0.3245 1.63814,1.0346 2.24668,2.1302 0.61076,1.0995 0.81783,2.1106 0.62122,3.033 -0.2006,0.9247 -0.78096,1.6537 -1.7411,2.187"
         style=""
         id="path4156" />
      <path
         d="m 286.23836,1028.8907 -1.8342,-4.2414 1.15449,-0.4993 1.81792,4.2038 c 0.28761,0.6651 0.63254,1.1068 1.03478,1.3251 0.40224,0.2183 0.86271,0.2153 1.38139,-0.01 0.62325,-0.2695 1.02883,-0.6807 1.21671,-1.2337 0.18789,-0.5529 0.13351,-1.1724 -0.16315,-1.8584 l -1.71753,-3.9717 1.16077,-0.5019 3.03891,7.0273 -1.16076,0.5019 -0.47212,-1.0917 c -0.0934,0.5419 -0.28098,0.9979 -0.56282,1.368 -0.28602,0.3719 -0.67373,0.6637 -1.16313,0.8754 -0.80731,0.3491 -1.52654,0.3622 -2.15772,0.039 -0.62936,-0.3187 -1.15388,-0.9632 -1.57354,-1.9337"
         style=""
         id="path4158" />
      <path
         d="m 277.05304,1031.4603 -0.18691,-0.5862 5.50986,-1.7569 c -0.31515,-0.8083 -0.76339,-1.359 -1.34472,-1.652 -0.58428,-0.2872 -1.2737,-0.3042 -2.06827,-0.051 -0.46024,0.1468 -0.88728,0.3451 -1.28114,0.5951 -0.39819,0.2513 -0.77404,0.5577 -1.12755,0.9192 l -0.36136,-1.1332 c 0.3717,-0.3195 0.7681,-0.5989 1.18919,-0.8385 0.42111,-0.2395 0.86395,-0.4333 1.32852,-0.5814 1.16364,-0.3711 2.19428,-0.3266 3.09194,0.1333 0.89332,0.4614 1.52411,1.2695 1.89239,2.4245 0.38074,1.194 0.36126,2.243 -0.0584,3.147 -0.42265,0.9096 -1.18106,1.5389 -2.27521,1.8878 -0.98127,0.3129 -1.85736,0.2431 -2.62829,-0.2095 -0.77388,-0.4468 -1.33389,-1.2129 -1.68002,-2.2984 m 1.31051,-0.03 c 0.21775,0.6528 0.56911,1.1172 1.05409,1.393 0.48064,0.2773 1.01621,0.3217 1.60671,0.1335 0.66865,-0.2133 1.14465,-0.5731 1.42799,-1.0796 0.279,-0.5051 0.33952,-1.1104 0.18155,-1.8158 l -4.27034,1.3689"
         style=""
         id="path4160" />
    </g>
    <path
       transform="matrix(1.3901813,0,0,1.3901812,164.12579,701.87071)"
       d="m 136.82555,112.29443 c 0,6.84265 -5.54706,12.38972 -12.38971,12.38972 -6.84265,0 -12.38972,-5.54707 -12.38972,-12.38972 0,-6.84265 5.54707,-12.389713 12.38972,-12.389713 6.84265,0 12.38971,5.547063 12.38971,12.389713 z"
       sodipodi:ry="12.389716"
       sodipodi:rx="12.389716"
       sodipodi:cy="112.29443"
       sodipodi:cx="124.43584"
       id="path3947"
       style="fill:#cccccc;fill-opacity:1;fill-rule:nonzero;stroke:#000000;stroke-width:0.70866144;stroke-linecap:round;stroke-linejoin:round;stroke-miterlimit:4;stroke-opacity:1;stroke-dasharray:none;stroke-dashoffset:0"
       sodipodi:type="arc" />
    <text
       sodipodi:linespacing="125%"
       id="text3949"
       y="861.98987"
       x="336.96109"
       style="font-size:11px;font-style:normal;font-weight:normal;text-align:center;line-height:125%;letter-spacing:0px;word-spacing:0px;text-anchor:middle;fill:#000000;fill-opacity:1;stroke:none;font-family:Sans"
       xml:space="preserve"><tspan
         y="861.98987"
         x="336.96109"
         id="tspan3951"
         sodipodi:role="line">BB</tspan></text>
    <path
       sodipodi:type="arc"
       style="fill:#cccccc;fill-opacity:1;fill-rule:nonzero;stroke:#000000;stroke-width:0.70866144;stroke-linecap:round;stroke-linejoin:round;stroke-miterlimit:4;stroke-opacity:1;stroke-dasharray:none;stroke-dashoffset:0"
       id="path3953"
       sodipodi:cx="124.43584"
       sodipodi:cy="112.29443"
       sodipodi:rx="12.389716"
       sodipodi:ry="12.389716"
       d="m 136.82555,112.29443 c 0,6.84265 -5.54706,12.38972 -12.38971,12.38972 -6.84265,0 -12.38972,-5.54707 -12.38972,-12.38972 0,-6.84265 5.54707,-12.389713 12.38972,-12.389713 6.84265,0 12.38971,5.547063 12.38971,12.389713 z"
       transform="matrix(1.3901813,0,0,1.3901812,79.259654,785.91007)" />
    <text
       xml:space="preserve"
       style="font-size:11px;font-style:normal;font-weight:normal;text-align:center;line-height:125%;letter-spacing:0px;word-spacing:0px;text-anchor:middle;fill:#000000;fill-opacity:1;stroke:none;font-family:Sans"
       x="252.09496"
       y="946.02917"
       id="text3955"
       sodipodi:linespacing="125%"><tspan
         sodipodi:role="line"
         id="tspan3957"
         x="252.09496"
         y="946.02917">BB</tspan></text>
    <g
       id="g3977"
       transform="translate(105,-186)">
      <path
         inkscape:connector-curvature="0"
         id="path3967"
         d="M 56.692909,1016.9752 70.866138,995.71542"
         style="fill:none;stroke:#000000;stroke-width:1.41732287;stroke-linecap:round;stroke-linejoin:miter;stroke-miterlimit:4;stroke-opacity:1;stroke-dasharray:none" />
      <path
         inkscape:connector-curvature="0"
         id="path3969"
         d="M 85.039366,1016.9752 70.866138,995.71542"
         style="fill:none;stroke:#000000;stroke-width:1.41732287;stroke-linecap:round;stroke-linejoin:miter;stroke-miterlimit:4;stroke-opacity:1;stroke-dasharray:none" />
      <path
         sodipodi:nodetypes="cc"
         transform="translate(-4.149475e-6,698.0315)"
         inkscape:connector-curvature="0"
         id="path3971"
         d="m 70.866142,276.37794 0,21.25985"
         style="fill:none;stroke:#000000;stroke-width:1.41732287;stroke-linecap:round;stroke-linejoin:miter;stroke-miterlimit:4;stroke-opacity:1;stroke-dasharray:none" />
      <path
         sodipodi:nodetypes="ccc"
         transform="translate(-4.149475e-6,698.0315)"
         inkscape:connector-curvature="0"
         id="path3973"
         d="m 49.606299,283.46456 21.259843,-7.08662 21.259842,7.08662"
         style="fill:none;stroke:#000000;stroke-width:1.41732287;stroke-linecap:round;stroke-linejoin:miter;stroke-miterlimit:4;stroke-opacity:1;stroke-dasharray:none" />
      <path
         transform="translate(-4.149475e-6,698.0315)"
         d="m 77.952756,269.29132 c 0,3.91383 -3.172785,7.08661 -7.086614,7.08661 -3.913829,0 -7.086614,-3.17278 -7.086614,-7.08661 0,-3.91383 3.172785,-7.08661 7.086614,-7.08661 3.913829,0 7.086614,3.17278 7.086614,7.08661 z"
         sodipodi:ry="7.0866141"
         sodipodi:rx="7.0866141"
         sodipodi:cy="269.29132"
         sodipodi:cx="70.866142"
         id="path3975"
         style="fill:none;stroke:#000000;stroke-width:1.41732287;stroke-linecap:round;stroke-linejoin:round;stroke-miterlimit:4;stroke-opacity:1;stroke-dasharray:none;stroke-dashoffset:0"
         sodipodi:type="arc" />
    </g>
    <g
       transform="translate(229.43198,-88.59835)"
       id="g3984">
      <path
         style="fill:none;stroke:#000000;stroke-width:1.41732287;stroke-linecap:round;stroke-linejoin:miter;stroke-miterlimit:4;stroke-opacity:1;stroke-dasharray:none"
         d="M 56.692909,1016.9752 70.866138,995.71542"
         id="path3986"
         inkscape:connector-curvature="0" />
      <path
         style="fill:none;stroke:#000000;stroke-width:1.41732287;stroke-linecap:round;stroke-linejoin:miter;stroke-miterlimit:4;stroke-opacity:1;stroke-dasharray:none"
         d="M 85.039366,1016.9752 70.866138,995.71542"
         id="path3988"
         inkscape:connector-curvature="0" />
      <path
         style="fill:none;stroke:#000000;stroke-width:1.41732287;stroke-linecap:round;stroke-linejoin:miter;stroke-miterlimit:4;stroke-opacity:1;stroke-dasharray:none"
         d="m 70.866142,276.37794 0,21.25985"
         id="path3990"
         inkscape:connector-curvature="0"
         transform="translate(-4.149475e-6,698.0315)"
         sodipodi:nodetypes="cc" />
      <path
         style="fill:none;stroke:#000000;stroke-width:1.41732287;stroke-linecap:round;stroke-linejoin:miter;stroke-miterlimit:4;stroke-opacity:1;stroke-dasharray:none"
         d="m 49.606299,283.46456 21.259843,-7.08662 21.259842,7.08662"
         id="path3992"
         inkscape:connector-curvature="0"
         transform="translate(-4.149475e-6,698.0315)"
         sodipodi:nodetypes="ccc" />
      <path
         sodipodi:type="arc"
         style="fill:none;stroke:#000000;stroke-width:1.41732287;stroke-linecap:round;stroke-linejoin:round;stroke-miterlimit:4;stroke-opacity:1;stroke-dasharray:none;stroke-dashoffset:0"
         id="path3994"
         sodipodi:cx="70.866142"
         sodipodi:cy="269.29132"
         sodipodi:rx="7.0866141"
         sodipodi:ry="7.0866141"
         d="m 77.952756,269.29132 c 0,3.91383 -3.172785,7.08661 -7.086614,7.08661 -3.913829,0 -7.086614,-3.17278 -7.086614,-7.08661 0,-3.91383 3.172785,-7.08661 7.086614,-7.08661 3.913829,0 7.086614,3.17278 7.086614,7.08661 z"
         transform="translate(-4.149475e-6,698.0315)" />
    </g>
    <text
       xml:space="preserve"
       style="font-size:14px;font-style:normal;font-weight:normal;text-align:start;line-height:125%;letter-spacing:0px;word-spacing:0px;text-anchor:start;fill:#000000;fill-opacity:1;stroke:none;font-family:Sans"
       x="152.08098"
       y="776.82324"
       id="text4000"
       sodipodi:linespacing="125%"><tspan
         sodipodi:role="line"
         id="tspan4002"
         x="152.08098"
         y="776.82324">A.</tspan></text>
    <text
       xml:space="preserve"
       style="font-size:14px;font-style:normal;font-weight:normal;text-align:start;line-height:125%;letter-spacing:0px;word-spacing:0px;text-anchor:start;fill:#000000;fill-opacity:1;stroke:none;font-family:Sans"
       x="275.93622"
       y="877.12189"
       id="text4000-6"
       sodipodi:linespacing="125%"><tspan
         sodipodi:role="line"
         id="tspan4002-2"
         x="275.93622"
         y="877.12189">B.</tspan></text>
  </g>
</svg>
